<svg xmlns="http://www.w3.org/2000/svg" aria-hidden="true" focusable="false" style="position:absolute;width:0;height:0;overflow:hidden">
  <symbol id="cloud-upload-24" viewBox="0 0 24 24">
    <path d="M19.35 10.04A7.49 7.49 0 0 0 12 4C9.11 4 6.6 5.64 5.35 8.04A5.994 5.994 0 0 0 0 14c0 3.31 2.69 6 6 6h13c2.76 0 5-2.24 5-5 0-2.64-2.05-4.78-4.65-4.96zM14 13v4h-4v-4H7l5-5 5 5h-3z"/>
  </symbol>
  <symbol id="info-circle-20" viewBox="0 0 20 20">
    <path d="M10 2a8 8 0 1 1 0 16 8 8 0 0 1 0-16zm0 1a7 7 0 1 0 0 14 7 7 0 0 0 0-14zm0 9.5a.75.75 0 1 1 0 1.5.75.75 0 0 1 0-1.5zM10 6a.5.5 0 0 1 .5.5v4a.5.5 0 0 1-1 0v-4A.5.5 0 0 1 10 6z"/>
  </symbol>
  <symbol id="text-bullet-list-20" viewBox="0 0 20 20">
    <path d="M3 5.5A2.5 2.5 0 0 1 5.5 3h9A2.5 2.5 0 0 1 17 5.5v9a2.5 2.5 0 0 1-2.5 2.5h-9A2.5 2.5 0 0 1 3 14.5v-9zM5.5 4A1.5 1.5 0 0 0 4 5.5v9A1.5 1.5 0 0 0 5.5 16h9a1.5 1.5 0 0 0 1.5-1.5v-9A1.5 1.5 0 0 0 14.5 4h-9zm1 3.5a.5.5 0 0 1 .5-.5h6a.5.5 0 0 1 0 1H7a.5.5 0 0 1-.5-.5zm0 3a.5.5 0 0 1 .5-.5h6a.5.5 0 0 1 0 1H7a.5.5 0 0 1-.5-.5zm0 3a.5.5 0 0 1 .5-.5h4a.5.5 0 0 1 0 1H7a.5.5 0 0 1-.5-.5z"/>
  </symbol>
  <symbol id="checkmark-circle-20" viewBox="0 0 20 20">
    <path d="M10 2a8 8 0 1 1 0 16 8 8 0 0 1 0-16zm3.36 5.65a.5.5 0 0 0-.72-.01l-3.89 3.88-1.41-1.41a.5.5 0 0 0-.71.71l1.77 1.76a.5.5 0 0 0 .7 0l4.24-4.24a.5.5 0 0 0 .02-.7z"/>
  </symbol>
  <symbol id="alert-20" viewBox="0 0 20 20">
    <path d="M10 2a4.5 4.5 0 0 1 4.5 4.5V8h.5A1.5 1.5 0 0 1 16.5 9.5v7a1.5 1.5 0 0 1-1.5 1.5H5a1.5 1.5 0 0 1-1.5-1.5v-7A1.5 1.5 0 0 1 5 8h.5V6.5A4.5 4.5 0 0 1 10 2zm5 7H5a.5.5 0 0 0-.5.5v7a.5.5 0 0 0 .5.5h10a.5.5 0 0 0 .5-.5v-7a.5.5 0 0 0-.5-.5zm-5 3a1 1 0 0 1 .5 1.87V15a.5.5 0 0 1-1 0v-1.13A1 1 0 0 1 10 12zm0-9A3.5 3.5 0 0 0 6.5 6.5V8h7V6.5A3.5 3.5 0 0 0 10 3z"/>
  </symbol>
  <symbol id="download-20" viewBox="0 0 20 20">
    <path d="M15.5 17a.5.5 0 0 1 0 1h-11a.5.5 0 0 1 0-1h11zM10 2a.5.5 0 0 1 .5.5v10.793l2.146-2.147a.5.5 0 0 1 .708.708l-3 3a.5.5 0 0 1-.708 0l-3-3a.5.5 0 0 1 .708-.708L9.5 13.293V2.5A.5.5 0 0 1 10 2z"/>
  </symbol>
  <symbol id="chevron-left-20" viewBox="0 0 20 20">
    <path d="M7.707 2.293a1 1 0 0 0-1.414 0l-4 4a1 1 0 0 0 0 1.414l4 4a1 1 0 0 0 1.414-1.414L5.414 8H17a1 1 0 1 0 0-2H5.414l2.293-2.293a1 1 0 0 0 0-1.414z"/>
  </symbol>
  <symbol id="arrow-right-20" viewBox="0 0 20 20">
    <path d="M12.293 2.293a1 1 0 0 1 1.414 0l4 4a1 1 0 0 1 0 1.414l-4 4a1 1 0 0 1-1.414-1.414L14.586 8H3a1 1 0 0 1 0-2h11.586l-2.293-2.293a1 1 0 0 1 0-1.414z"/>
  </symbol>
</svg>
